<mxfile host="app.diagrams.net" modified="2024-04-26T18:23:18.841Z" agent="Mozilla/5.0 (Macintosh; Intel Mac OS X 10_15_7) AppleWebKit/537.36 (KHTML, like Gecko) Chrome/124.0.0.0 Safari/537.36" etag="51oWVJgmurXAaxm7Kr8-" version="24.3.0" type="device">
  <diagram name="Page-1" id="kdoU0BRqOFxP0WzZpVLu">
    <mxGraphModel dx="1434" dy="680" grid="1" gridSize="10" guides="1" tooltips="1" connect="1" arrows="1" fold="1" page="1" pageScale="1" pageWidth="850" pageHeight="1100" math="0" shadow="0">
      <root>
        <mxCell id="0" />
        <mxCell id="1" parent="0" />
        <mxCell id="pP5xOpkh7hx6FBueZqlr-1" value="" style="image;html=1;image=img/lib/clip_art/people/Worker_Man_128x128.png" vertex="1" parent="1">
          <mxGeometry x="100" y="280" width="80" height="80" as="geometry" />
        </mxCell>
        <mxCell id="pP5xOpkh7hx6FBueZqlr-2" value="Create Account&amp;nbsp;" style="ellipse;whiteSpace=wrap;html=1;" vertex="1" parent="1">
          <mxGeometry x="390" y="60" width="120" height="80" as="geometry" />
        </mxCell>
        <mxCell id="pP5xOpkh7hx6FBueZqlr-3" value="Create / Update User Profile&amp;nbsp;" style="ellipse;whiteSpace=wrap;html=1;" vertex="1" parent="1">
          <mxGeometry x="390" y="150" width="120" height="80" as="geometry" />
        </mxCell>
        <mxCell id="pP5xOpkh7hx6FBueZqlr-4" value="Save Workout" style="ellipse;whiteSpace=wrap;html=1;" vertex="1" parent="1">
          <mxGeometry x="390" y="240" width="120" height="80" as="geometry" />
        </mxCell>
        <mxCell id="pP5xOpkh7hx6FBueZqlr-5" value="View Previous Workouts&amp;nbsp;" style="ellipse;whiteSpace=wrap;html=1;" vertex="1" parent="1">
          <mxGeometry x="390" y="330" width="120" height="80" as="geometry" />
        </mxCell>
        <mxCell id="pP5xOpkh7hx6FBueZqlr-6" value="Calculate WILKS &amp;amp; 1RM&amp;nbsp;" style="ellipse;whiteSpace=wrap;html=1;" vertex="1" parent="1">
          <mxGeometry x="390" y="420" width="120" height="80" as="geometry" />
        </mxCell>
        <mxCell id="pP5xOpkh7hx6FBueZqlr-7" value="" style="endArrow=none;html=1;rounded=0;exitX=1;exitY=0.5;exitDx=0;exitDy=0;" edge="1" parent="1" source="pP5xOpkh7hx6FBueZqlr-1">
          <mxGeometry width="50" height="50" relative="1" as="geometry">
            <mxPoint x="550" y="340" as="sourcePoint" />
            <mxPoint x="280" y="320" as="targetPoint" />
          </mxGeometry>
        </mxCell>
        <mxCell id="pP5xOpkh7hx6FBueZqlr-8" value="" style="endArrow=none;html=1;rounded=0;" edge="1" parent="1">
          <mxGeometry width="50" height="50" relative="1" as="geometry">
            <mxPoint x="280" y="550" as="sourcePoint" />
            <mxPoint x="280" y="100" as="targetPoint" />
          </mxGeometry>
        </mxCell>
        <mxCell id="pP5xOpkh7hx6FBueZqlr-10" value="" style="endArrow=none;html=1;rounded=0;entryX=0;entryY=0.613;entryDx=0;entryDy=0;entryPerimeter=0;" edge="1" parent="1">
          <mxGeometry width="50" height="50" relative="1" as="geometry">
            <mxPoint x="280" y="459.5" as="sourcePoint" />
            <mxPoint x="390" y="459.53999999999996" as="targetPoint" />
          </mxGeometry>
        </mxCell>
        <mxCell id="pP5xOpkh7hx6FBueZqlr-11" value="" style="endArrow=none;html=1;rounded=0;entryX=0;entryY=0.613;entryDx=0;entryDy=0;entryPerimeter=0;" edge="1" parent="1">
          <mxGeometry width="50" height="50" relative="1" as="geometry">
            <mxPoint x="280" y="370.5" as="sourcePoint" />
            <mxPoint x="390" y="369.5" as="targetPoint" />
          </mxGeometry>
        </mxCell>
        <mxCell id="pP5xOpkh7hx6FBueZqlr-13" value="" style="endArrow=none;html=1;rounded=0;entryX=0;entryY=0.613;entryDx=0;entryDy=0;entryPerimeter=0;" edge="1" parent="1">
          <mxGeometry width="50" height="50" relative="1" as="geometry">
            <mxPoint x="280" y="280.5" as="sourcePoint" />
            <mxPoint x="390" y="279.5" as="targetPoint" />
          </mxGeometry>
        </mxCell>
        <mxCell id="pP5xOpkh7hx6FBueZqlr-14" value="" style="endArrow=none;html=1;rounded=0;entryX=0;entryY=0.613;entryDx=0;entryDy=0;entryPerimeter=0;" edge="1" parent="1">
          <mxGeometry width="50" height="50" relative="1" as="geometry">
            <mxPoint x="280" y="100.5" as="sourcePoint" />
            <mxPoint x="390" y="99.5" as="targetPoint" />
          </mxGeometry>
        </mxCell>
        <mxCell id="pP5xOpkh7hx6FBueZqlr-15" value="" style="endArrow=none;html=1;rounded=0;entryX=0;entryY=0.613;entryDx=0;entryDy=0;entryPerimeter=0;" edge="1" parent="1">
          <mxGeometry width="50" height="50" relative="1" as="geometry">
            <mxPoint x="280" y="190.5" as="sourcePoint" />
            <mxPoint x="390" y="189.5" as="targetPoint" />
          </mxGeometry>
        </mxCell>
        <mxCell id="pP5xOpkh7hx6FBueZqlr-16" value="Create 531 Workout Plans" style="ellipse;whiteSpace=wrap;html=1;" vertex="1" parent="1">
          <mxGeometry x="390" y="510" width="120" height="80" as="geometry" />
        </mxCell>
        <mxCell id="pP5xOpkh7hx6FBueZqlr-17" value="" style="endArrow=none;html=1;rounded=0;entryX=0;entryY=0.613;entryDx=0;entryDy=0;entryPerimeter=0;" edge="1" parent="1">
          <mxGeometry width="50" height="50" relative="1" as="geometry">
            <mxPoint x="280" y="550" as="sourcePoint" />
            <mxPoint x="390" y="550.04" as="targetPoint" />
          </mxGeometry>
        </mxCell>
      </root>
    </mxGraphModel>
  </diagram>
</mxfile>
